<svg width="30" height="31" viewBox="0 0 30 31" fill="none" xmlns="http://www.w3.org/2000/svg">
<path d="M21.8793 0.832031H8.12073C3.64288 0.832031 0 4.44854 0 8.89396V22.5531C0 26.9983 3.64288 30.6148 8.12073 30.6148H21.8795C26.3571 30.6148 30 26.9983 30 22.5531V8.89396C30 4.44854 26.3571 0.832031 21.8793 0.832031V0.832031ZM15 23.8669C10.4768 23.8669 6.7971 20.2138 6.7971 15.7234C6.7971 11.233 10.4768 7.57992 15 7.57992C19.5232 7.57992 23.2029 11.233 23.2029 15.7234C23.2029 20.2138 19.5232 23.8669 15 23.8669ZM23.399 9.50042C22.0624 9.50042 20.9752 8.4211 20.9752 7.09411C20.9752 5.76712 22.0624 4.68758 23.399 4.68758C24.7357 4.68758 25.8231 5.76712 25.8231 7.09411C25.8231 8.4211 24.7357 9.50042 23.399 9.50042Z" fill="black"/>
<path d="M14.9998 9.32593C11.4467 9.32593 8.55566 12.1958 8.55566 15.7234C8.55566 19.2509 11.4467 22.1209 14.9998 22.1209C18.5532 22.1209 21.444 19.2509 21.444 15.7234C21.444 12.1958 18.5532 9.32593 14.9998 9.32593Z" fill="black"/>
<path d="M23.3991 6.43378C23.0324 6.43378 22.7339 6.72953 22.7339 7.09286C22.7339 7.4562 23.0324 7.75195 23.3991 7.75195C23.766 7.75195 24.0645 7.45643 24.0645 7.09286C24.0645 6.7293 23.766 6.43378 23.3991 6.43378Z" fill="black"/>
</svg>
