<svg width="30" height="31" viewBox="0 0 30 31" fill="none" xmlns="http://www.w3.org/2000/svg">
<path d="M15.0037 0.796112H14.9963C6.72563 0.796112 0 7.4749 0 15.6875C0 18.945 1.0575 21.9642 2.85562 24.4157L0.98625 29.9479L6.75187 28.1181C9.12375 29.678 11.9531 30.5789 15.0037 30.5789C23.2744 30.5789 30 23.8982 30 15.6875C30 7.47676 23.2744 0.796112 15.0037 0.796112ZM23.7319 21.8246C23.37 22.8391 21.9338 23.6805 20.7881 23.9262C20.0044 24.0918 18.9806 24.224 15.5344 22.8056C11.1262 20.9926 8.2875 16.5456 8.06625 16.2571C7.85437 15.9686 6.285 13.9024 6.285 11.7655C6.285 9.62857 7.37813 8.58803 7.81875 8.14129C8.18062 7.77459 8.77875 7.60706 9.3525 7.60706C9.53813 7.60706 9.705 7.61637 9.855 7.62381C10.2956 7.64243 10.5169 7.66849 10.8075 8.35908C11.1694 9.22464 12.0506 11.3616 12.1556 11.5812C12.2625 11.8008 12.3694 12.0987 12.2194 12.3872C12.0788 12.685 11.955 12.8172 11.7337 13.0703C11.5125 13.3235 11.3025 13.5171 11.0812 13.7888C10.8787 14.0252 10.65 14.2784 10.905 14.7158C11.16 15.144 12.0413 16.5717 13.3387 17.7183C15.0131 19.1981 16.3706 19.6709 16.8562 19.872C17.2181 20.0209 17.6494 19.9855 17.9137 19.7063C18.2494 19.3471 18.6637 18.7514 19.0856 18.1651C19.3856 17.7444 19.7644 17.6923 20.1619 17.8412C20.5669 17.9808 22.71 19.0325 23.1506 19.2503C23.5912 19.4699 23.8819 19.5742 23.9887 19.7584C24.0938 19.9427 24.0938 20.8083 23.7319 21.8246Z" fill="black"/>
</svg>
